<?xml version="1.0" encoding="UTF-8" standalone="no"?>
<!-- Created with Inkscape (http://www.inkscape.org/) -->
<svg
   xmlns:dc="http://purl.org/dc/elements/1.1/"
   xmlns:cc="http://creativecommons.org/ns#"
   xmlns:rdf="http://www.w3.org/1999/02/22-rdf-syntax-ns#"
   xmlns:svg="http://www.w3.org/2000/svg"
   xmlns="http://www.w3.org/2000/svg"
   xmlns:xlink="http://www.w3.org/1999/xlink"
   xmlns:sodipodi="http://sodipodi.sourceforge.net/DTD/sodipodi-0.dtd"
   xmlns:inkscape="http://www.inkscape.org/namespaces/inkscape"
   width="100"
   height="100"
   id="svg2"
   sodipodi:version="0.32"
   inkscape:version="0.46"
   version="1.0"
   sodipodi:docname="merlin.svg"
   inkscape:output_extension="org.inkscape.output.svg.inkscape">
  <defs
     id="defs4">
    <linearGradient
       inkscape:collect="always"
       id="linearGradient3406">
      <stop
         style="stop-color:#000000;stop-opacity:1;"
         offset="0"
         id="stop3408" />
      <stop
         style="stop-color:#204a87;stop-opacity:1"
         offset="1"
         id="stop3410" />
    </linearGradient>
    <inkscape:perspective
       sodipodi:type="inkscape:persp3d"
       inkscape:vp_x="0 : 526.18109 : 1"
       inkscape:vp_y="0 : 1000 : 0"
       inkscape:vp_z="744.09448 : 526.18109 : 1"
       inkscape:persp3d-origin="372.04724 : 350.78739 : 1"
       id="perspective10" />
    <inkscape:perspective
       id="perspective2404"
       inkscape:persp3d-origin="372.04724 : 350.78739 : 1"
       inkscape:vp_z="744.09448 : 526.18109 : 1"
       inkscape:vp_y="0 : 1000 : 0"
       inkscape:vp_x="0 : 526.18109 : 1"
       sodipodi:type="inkscape:persp3d" />
    <inkscape:perspective
       id="perspective2419"
       inkscape:persp3d-origin="372.04724 : 350.78739 : 1"
       inkscape:vp_z="744.09448 : 526.18109 : 1"
       inkscape:vp_y="0 : 1000 : 0"
       inkscape:vp_x="0 : 526.18109 : 1"
       sodipodi:type="inkscape:persp3d" />
    <inkscape:perspective
       id="perspective2432"
       inkscape:persp3d-origin="372.04724 : 350.78739 : 1"
       inkscape:vp_z="744.09448 : 526.18109 : 1"
       inkscape:vp_y="0 : 1000 : 0"
       inkscape:vp_x="0 : 526.18109 : 1"
       sodipodi:type="inkscape:persp3d" />
    <inkscape:perspective
       id="perspective2445"
       inkscape:persp3d-origin="372.04724 : 350.78739 : 1"
       inkscape:vp_z="744.09448 : 526.18109 : 1"
       inkscape:vp_y="0 : 1000 : 0"
       inkscape:vp_x="0 : 526.18109 : 1"
       sodipodi:type="inkscape:persp3d" />
    <linearGradient
       y2="471.38400"
       y1="45.132561"
       xlink:href="#linearGradient7601"
       x2="1370.5586"
       x1="-526.86133"
       spreadMethod="reflect"
       inkscape:collect="always"
       id="linearGradient10877"
       gradientUnits="userSpaceOnUse"
       gradientTransform="matrix(8.892150e-2,0.000000,0.000000,0.155616,635.7169,9.380527)" />
    <linearGradient
       y2="471.38400"
       y1="45.132561"
       xlink:href="#linearGradient7601"
       x2="1370.5586"
       x1="-526.86133"
       spreadMethod="reflect"
       inkscape:collect="always"
       id="linearGradient10869"
       gradientUnits="userSpaceOnUse"
       gradientTransform="matrix(0.323979,0.000000,0.000000,0.566975,399.6324,14.15086)" />
    <linearGradient
       y2="471.38400"
       y1="45.132561"
       xlink:href="#linearGradient7601"
       x2="1370.5586"
       x1="-526.86133"
       spreadMethod="reflect"
       inkscape:collect="always"
       id="linearGradient7607"
       gradientUnits="userSpaceOnUse"
       gradientTransform="matrix(0.755921,0,0,1.32289,-36,0)" />
    <linearGradient
       inkscape:collect="always"
       id="linearGradient7601">
      <stop
         style="stop-color:#000000;stop-opacity:1;"
         offset="0"
         id="stop7603" />
      <stop
         style="stop-color:#000000;stop-opacity:0;"
         offset="1"
         id="stop7605" />
    </linearGradient>
    <inkscape:perspective
       id="perspective2506"
       inkscape:persp3d-origin="372.04724 : 350.78739 : 1"
       inkscape:vp_z="744.09448 : 526.18109 : 1"
       inkscape:vp_y="0 : 1000 : 0"
       inkscape:vp_x="0 : 526.18109 : 1"
       sodipodi:type="inkscape:persp3d" />
    <inkscape:perspective
       id="perspective2528"
       inkscape:persp3d-origin="372.04724 : 350.78739 : 1"
       inkscape:vp_z="744.09448 : 526.18109 : 1"
       inkscape:vp_y="0 : 1000 : 0"
       inkscape:vp_x="0 : 526.18109 : 1"
       sodipodi:type="inkscape:persp3d" />
    <inkscape:perspective
       id="perspective2541"
       inkscape:persp3d-origin="372.04724 : 350.78739 : 1"
       inkscape:vp_z="744.09448 : 526.18109 : 1"
       inkscape:vp_y="0 : 1000 : 0"
       inkscape:vp_x="0 : 526.18109 : 1"
       sodipodi:type="inkscape:persp3d" />
    <linearGradient
       inkscape:collect="always"
       xlink:href="#linearGradient3406"
       id="linearGradient3420"
       gradientUnits="userSpaceOnUse"
       x1="216.78322"
       y1="11.538462"
       x2="206.99301"
       y2="71.678322" />
  </defs>
  <sodipodi:namedview
     id="base"
     pagecolor="#ffffff"
     bordercolor="#666666"
     borderopacity="1.0"
     gridtolerance="10000"
     guidetolerance="10"
     objecttolerance="10"
     inkscape:pageopacity="0.0"
     inkscape:pageshadow="2"
     inkscape:zoom="2.86"
     inkscape:cx="21.669623"
     inkscape:cy="23.874533"
     inkscape:document-units="px"
     inkscape:current-layer="layer1"
     showgrid="false"
     inkscape:showpageshadow="false"
     inkscape:window-width="1152"
     inkscape:window-height="784"
     inkscape:window-x="0"
     inkscape:window-y="146" />
  <metadata
     id="metadata7">
    <rdf:RDF>
      <cc:Work
         rdf:about="">
        <dc:format>image/svg+xml</dc:format>
        <dc:type
           rdf:resource="http://purl.org/dc/dcmitype/StillImage" />
      </cc:Work>
    </rdf:RDF>
  </metadata>
  <g
     inkscape:label="Layer 1"
     inkscape:groupmode="layer"
     id="layer1">
    <g
       id="g3414"
       transform="translate(-169.23077,0)">
      <path
         style="fill:#000000"
         d="M 233.71501,78.179249 C 232.38609,78.037111 231.71837,77.618982 231.07145,76.523835 C 230.07345,74.834347 227.4675,72.739843 226.01288,72.458073 C 225.27471,72.315078 225.0499,71.927869 225.14919,70.970384 C 225.24838,70.013802 224.8141,69.263947 223.48514,68.097101 L 221.68687,66.518198 L 219.69109,68.785524 C 217.44399,71.338368 216.70999,71.488793 213.67709,70.018058 C 211.9213,69.166631 211.29014,69.079793 210.11519,69.527994 C 209.03715,69.939223 208.75065,70.315385 208.94613,71.062915 C 209.09991,71.650954 208.89692,72.22556 208.44633,72.477722 C 207.82299,72.826562 207.795,73.103033 208.28948,74.026978 C 209.17053,75.673235 208.23335,76.441393 206.48206,75.50841 C 205.43773,74.95205 205.09685,74.932302 204.93354,75.418703 C 204.52445,76.637113 189.0902,75.554559 189.0902,74.307455 C 189.0902,74.043942 190.21285,73.406871 191.58498,72.891745 C 194.07902,71.955426 195.76887,71.942468 203.80938,72.798001 C 205.04429,72.929396 205.71788,72.912751 205.30624,72.761009 C 204.8946,72.609267 203.60356,72.14428 202.43725,71.727713 C 200.43497,71.01256 200.31669,70.861886 200.31669,69.026525 C 200.31669,67.957443 199.41857,64.405777 198.32087,61.133934 C 196.0233,54.28572 195.80614,51.198056 197.25466,45.97423 C 198.16545,42.689644 198.1604,40.38572 197.24117,39.817604 C 196.59379,39.417502 191.78066,43.149475 189.98627,45.442864 L 188.49215,47.352479 L 189.40178,49.3483 C 190.5237,51.80989 190.56101,52.782847 189.56519,53.609306 C 188.92786,54.138244 188.46979,54.085764 186.94568,53.309205 C 184.26556,51.943635 184.18094,51.914096 184.5198,52.462373 C 184.68951,52.736978 184.38449,53.473451 183.84197,54.098981 C 183.10972,54.943273 182.9949,55.404178 183.39633,55.88787 C 184.2212,56.881773 183.39958,57.715273 181.89217,57.413789 C 180.75901,57.187154 180.46815,57.371198 180.00021,58.610907 C 179.44741,60.07542 178.2159,60.550396 177.59141,59.539942 C 177.40925,59.245204 177.73279,58.501007 178.31039,57.88618 C 179.42738,56.6972 179.74649,53.475327 178.88256,52.109353 C 178.48745,51.484631 178.1234,51.544316 176.39142,52.517742 C 173.89566,53.92044 172.18899,53.786785 171.96018,52.170719 C 171.82077,51.186036 171.95858,51.053529 172.83335,51.331167 C 174.41111,51.831929 175.6388,51.239714 177.16151,49.24334 C 177.92172,48.246647 178.28363,47.591908 177.96575,47.788371 C 177.20415,48.259066 173.35552,47.217083 172.26652,46.245351 C 171.61882,45.667399 171.53168,45.25206 171.90986,44.545424 C 172.57675,43.299335 173.87207,43.35113 173.87207,44.623886 C 173.87207,45.181349 174.20757,45.766201 174.61764,45.923557 C 175.0277,46.080912 175.26486,46.368786 175.14465,46.563277 C 175.02445,46.75777 176.09226,46.764241 177.51756,46.577667 C 178.94286,46.391091 180.1725,46.398906 180.2501,46.595034 C 180.55778,47.372672 183.82645,52.321932 183.8384,52.028262 C 183.84542,51.855694 183.10728,50.479142 182.19808,48.969263 C 180.08505,45.460234 180.18883,43.145515 182.53572,41.438447 C 184.73493,39.838792 193.19107,35.571211 195.55086,34.870063 C 197.04057,34.427435 197.63579,33.931312 197.99204,32.835314 C 198.25116,32.038145 198.88028,30.789813 199.39011,30.061244 L 200.31706,28.736571 L 198.32105,29.004292 C 194.53672,29.511878 196.74906,27.005037 200.91064,26.069992 C 203.33337,25.525642 204.30833,24.859324 204.30833,23.747915 C 204.30833,23.318959 204.72105,22.504463 205.22549,21.937929 C 205.72993,21.371391 206.44426,20.122002 206.81289,19.161514 C 208.95271,13.58605 215.4033,6.5633664 221.16647,3.5349035 C 223.08898,2.5246542 224.90829,1.6980852 225.20938,1.6980852 C 225.51047,1.6980852 224.93715,2.7646017 223.93534,4.0681219 C 219.98324,9.2104679 218.14134,15.253094 218.30765,22.530494 C 218.43496,28.100638 217.87091,30.733232 216.41254,31.375661 C 215.80238,31.644446 215.091,32.472937 214.8317,33.216752 C 214.37625,34.523266 214.47144,34.621174 217.6381,36.103029 C 222.35549,38.310562 226.56613,40.961815 230.05559,43.921768 C 232.221,45.758594 233.30179,46.377005 233.79775,46.062975 C 234.91091,45.358147 235.15092,45.496959 236.31437,47.518492 C 236.9197,48.570289 238.04906,49.79476 238.82404,50.239538 C 240.85383,51.404479 240.83109,54.522958 238.77573,56.863881 C 237.27038,58.578375 237.16792,60.249136 238.53593,60.774092 C 239.60533,61.184463 239.3749,62.57061 238.23728,62.57061 C 237.68843,62.57061 237.23937,62.710492 237.23937,62.881464 C 237.23937,63.052431 238.22896,64.579099 239.43846,66.274059 C 241.15245,68.676009 244.85678,72.327137 247.67585,74.393171 C 247.79019,74.47697 247.7395,74.689775 247.5632,74.866075 C 246.67816,75.751117 238.47423,67.56554 236.4162,63.744003 C 235.79545,62.591341 235.15834,62.071655 234.36599,62.071655 C 233.01816,62.071655 232.38808,60.862173 233.21614,59.864422 C 233.63977,59.353986 233.64561,59.074352 233.23794,58.822399 C 232.93148,58.632996 232.80575,58.152283 232.95852,57.754151 C 233.1113,57.35602 233.03978,57.151728 232.79959,57.300172 C 232.55941,57.448616 232.07991,57.229101 231.73404,56.812359 C 231.25404,56.23399 231.23813,55.762886 231.66681,54.822032 C 232.40478,53.202374 232.04876,53.261919 228.61499,55.332478 C 226.12896,56.831543 225.68507,56.959585 225.4149,56.25553 C 225.24237,55.805931 225.34915,54.781237 225.65217,53.978428 C 225.9552,53.17562 226.06952,52.142214 225.90622,51.681973 C 224.78483,48.521511 215.77454,38.620765 214.0197,38.620765 C 213.50229,38.620765 213.28952,39.193737 213.28952,40.587139 C 213.28952,42.889338 213.83642,43.394086 215.39977,42.534737 C 216.0229,42.192212 216.8134,41.864902 217.15643,41.80738 C 218.95448,41.50587 216.34308,45.980859 214.26274,46.766097 C 212.51914,47.424234 212.50451,47.570228 213.77171,51.665776 C 215.55751,57.437405 219.26311,62.05976 222.11115,62.068367 C 223.09263,62.071335 223.15513,62.224505 222.75052,63.635315 C 222.32697,65.112147 222.48362,65.384776 225.57141,68.544783 C 227.36955,70.384975 230.00732,72.597601 231.43312,73.461726 C 233.77172,74.879068 234.47235,75.045649 238.59027,75.163418 C 242.28836,75.269176 243.41641,75.489196 244.53161,76.322238 C 247.15224,78.279808 246.70289,78.543366 240.89837,78.4533 C 237.92544,78.407166 234.69292,78.283845 233.71501,78.179249 z M 235.64789,57.245412 C 235.48346,55.299686 234.45796,54.451378 233.93084,55.825041 C 233.55726,56.798548 234.49073,59.077924 235.26298,59.077924 C 235.58016,59.077924 235.73889,58.322262 235.64789,57.245412 z M 182.1155,53.577628 C 182.79665,52.824959 182.88523,52.423894 182.46345,52.002117 C 181.72396,51.262626 180.35849,52.331926 180.35849,53.65051 C 180.35849,54.864533 180.97397,54.839001 182.1155,53.577628 z M 238.1388,52.742492 C 238.90416,52.8888 239.1412,52.796888 238.82192,52.477606 C 238.20401,51.8597 234.64455,52.434492 233.41849,53.350164 C 232.70043,53.886446 232.98808,53.870554 234.73303,53.277551 C 235.96157,52.86004 237.49417,52.619265 238.1388,52.742492 z M 211.2937,26.865874 C 211.2937,26.744856 211.06917,26.645843 210.79475,26.645843 C 210.52032,26.645843 210.29579,26.883624 210.29579,27.174245 C 210.29579,27.464866 210.52032,27.56388 210.79475,27.394275 C 211.06917,27.224671 211.2937,26.986891 211.2937,26.865874 z M 209.29788,26.146888 C 208.88624,25.880867 208.21265,25.675556 207.80102,25.690642 C 207.30752,25.708728 207.3925,25.864139 208.05049,26.146888 C 209.42217,26.736314 210.20996,26.736314 209.29788,26.146888 z"
         id="path3394" />
      <path
         style="fill:#ffffff;fill-opacity:1;stroke:none;stroke-width:4;stroke-linecap:butt;stroke-linejoin:round;stroke-miterlimit:4;stroke-dashoffset:0.1;stroke-opacity:1"
         d="M 199.47355,31.568139 L 206.56773,31.221035 C 206.6535,34.074602 210.23767,34.825776 211.41869,39.027706 C 211.65173,45.404873 210.67478,55.394069 210.6423,61.534715 L 203.27841,62.511026 L 198.89333,42.598561 C 198.09279,39.416586 198.18353,38.201193 198.26249,34.896222 C 198.51787,33.439556 199.04311,32.908101 199.47355,31.568139 z"
         id="path3396"
         sodipodi:nodetypes="cccccccc" />
      <path
         style="fill:#ffffff;fill-opacity:1;stroke:none;stroke-width:4;stroke-linecap:butt;stroke-linejoin:round;stroke-miterlimit:4;stroke-dashoffset:0.1;stroke-opacity:1"
         d="M 205.89962,26.243714 L 216.57041,23.961522 L 216.01528,31.579109 L 214.96671,32.966928 L 210.43317,32.874406 C 210.23361,30.940693 210.74621,27.462233 209.21926,27.029141 C 208.04271,26.695434 204.90245,27.080915 205.89962,26.243714 z"
         id="path3398"
         sodipodi:nodetypes="cccccsc" />
      <path
         style="fill:url(#linearGradient3420);fill-opacity:1"
         d="M 234.7433,78.785858 C 233.06509,78.546295 232.27465,78.050493 230.78195,76.301097 C 229.7563,75.099077 228.17379,73.805017 227.26525,73.425406 C 226.07708,72.928956 225.61336,72.414394 225.61336,71.59239 C 225.61336,70.939213 224.8577,69.717157 223.84965,68.740118 L 222.08594,67.030663 L 220.06867,69.390676 C 218.95917,70.688678 217.75069,71.750684 217.38315,71.750684 C 217.01561,71.750684 215.64608,71.292533 214.33974,70.732566 C 211.3371,69.445486 209.14785,69.775859 209.14785,71.51606 C 209.14785,72.166682 208.75492,72.920708 208.27467,73.191681 C 207.57531,73.58629 207.52565,73.809722 208.0252,74.314175 C 209.27375,75.574995 208.76912,76.374897 206.94146,76.032023 C 205.95118,75.846242 205.10053,75.927706 204.91619,76.225972 C 204.25757,77.291637 190.20538,76.072114 189.8261,74.916374 C 189.72205,74.599318 190.37827,74.100702 191.28436,73.80834 C 194.45088,72.786629 197.2419,72.61923 200.84218,73.235075 C 205.70353,74.066639 207.24902,73.690891 203.5346,72.580481 L 200.66561,71.722807 L 200.66561,69.519965 C 200.66561,68.22602 199.89634,65.195197 198.80116,62.174318 C 197.22386,57.82356 196.93843,56.416751 196.94788,53.039867 C 196.95473,50.59376 197.32995,47.792481 197.91697,45.805018 L 198.87488,42.56181 L 199.31096,44.308153 C 199.5508,45.268642 199.87986,46.84035 200.0422,47.800839 C 200.31396,49.408622 200.36179,49.449461 200.64501,48.315551 C 200.92306,47.202337 201.14772,47.422297 202.98176,50.6034 C 205.7523,55.408836 206.84646,58.420634 206.44207,60.128338 C 206.11222,61.521236 206.11264,61.521116 207.10622,59.92915 C 210.09486,55.140623 210.27139,54.45433 209.959,48.838596 C 209.7975,45.935216 209.59129,42.773866 209.50078,41.813378 C 209.41026,40.852889 209.55639,39.336135 209.8255,38.442817 C 210.24975,37.034512 210.15432,36.64667 209.10763,35.525268 C 208.44369,34.813937 207.05847,33.800166 206.02938,33.272445 C 205.00028,32.744724 204.15829,32.1063 204.15829,31.853726 C 204.15829,31.601153 203.54084,31.716598 202.78617,32.110271 C 202.0315,32.503944 201.20398,32.827423 200.94724,32.829114 C 200.69051,32.830805 199.96687,33.314665 199.33917,33.904361 L 198.1979,34.976533 L 198.68009,33.295242 C 199.53627,30.309908 201.10282,29.246379 205.06114,28.963162 L 208.55954,28.712854 L 209.52644,30.59754 L 210.49334,32.482227 L 210.81982,30.440542 C 211.22423,27.911528 211.69682,27.589328 213.15143,28.850904 C 213.89922,29.499457 214.04978,29.843666 213.59005,29.85363 C 213.07169,29.864865 213.10458,29.994057 213.71678,30.351409 C 214.2552,30.665702 214.44531,31.209668 214.26187,31.911124 C 214.06138,32.677814 214.15582,32.879694 214.58958,32.611618 C 215.0439,32.330832 215.11949,32.660111 214.88663,33.905722 C 214.58183,35.536247 214.63267,35.597086 217.00005,36.434593 C 220.01688,37.501858 227.47212,42.1467 230.98414,45.147111 C 232.92813,46.807913 233.78856,47.264796 234.25044,46.881474 C 235.05544,46.213383 235.63946,46.632166 236.97868,48.837812 C 237.57491,49.819791 238.62957,50.881492 239.32238,51.197156 C 240.67196,51.812069 241.05371,53.289345 239.86303,53.289345 C 239.46759,53.289345 239.01985,53.088386 238.86805,52.84277 C 238.27286,51.879732 230.85112,54.473575 227.62124,56.773444 L 226.18476,57.796312 L 225.84657,56.730758 C 225.66057,56.144705 225.7964,55.127041 226.14842,54.469274 C 226.68245,53.471444 226.65884,53.001508 226.00592,51.63233 C 224.00087,47.42768 216.20792,39.318602 214.17223,39.318602 C 213.87071,39.318602 213.63844,40.314686 213.63844,41.607758 L 213.63844,43.896914 L 215.63426,43.559721 C 216.86919,43.351082 217.63008,43.414879 217.63008,43.72706 C 217.63008,44.72041 215.02692,47.301884 214.02522,47.301884 C 213.09551,47.301884 213.0319,47.514578 213.31641,49.67192 C 213.71543,52.697539 217.23906,59.894707 218.99917,61.279208 C 219.74094,61.862691 220.99028,62.468567 221.77546,62.625603 C 223.0789,62.886292 223.17668,63.051811 222.89965,64.528518 C 222.61852,66.0271 222.85678,66.397584 226.14316,69.571991 C 231.66278,74.903541 233.3542,75.77784 238.51328,75.966066 C 240.886,76.05263 243.27637,76.296367 243.82523,76.507689 C 245.06322,76.984361 246.56948,78.249906 246.56948,78.813391 C 246.56948,79.278701 238.05703,79.258883 234.7433,78.785858 z M 213.9399,35.961052 C 213.77409,35.795254 213.65617,36.089949 213.67783,36.615931 C 213.70177,37.197185 213.82001,37.315416 213.97928,36.917383 C 214.12342,36.5572 214.10569,36.126851 213.9399,35.961052 z M 245.20993,73.80803 C 242.00504,71.274705 238.50834,67.243443 236.81131,64.125442 C 234.9306,60.669949 236.05226,61.57637 238.83297,65.759161 C 240.1014,67.66714 242.7451,70.693887 244.70786,72.48527 C 248.6934,76.122788 248.93131,76.749613 245.20993,73.80803 z M 237.58829,58.807299 C 237.58829,58.54907 237.81025,58.20061 238.08153,58.032951 C 238.36437,57.858147 238.44801,58.058428 238.27762,58.502458 C 237.94592,59.366858 237.58829,59.525011 237.58829,58.807299 z M 187.4433,53.958519 C 183.87183,52.07901 181.20636,48.284436 181.20636,45.079593 C 181.20636,43.585631 181.52244,43.087539 183.27704,41.816511 C 184.41592,40.991514 185.64303,40.316512 186.00397,40.316512 C 186.3649,40.316512 187.72356,39.642155 189.02321,38.817943 C 191.45837,37.273611 196.15238,35.326963 197.44112,35.326963 C 197.97271,35.326963 198.17083,35.933104 198.17083,37.559448 C 198.17083,39.489859 197.98517,39.888149 196.79871,40.503042 C 194.98577,41.442594 190.96941,45.004191 189.67864,46.816914 L 188.65051,48.260791 L 189.7156,50.348539 C 190.56857,52.020517 190.67407,52.670281 190.24534,53.611251 C 189.62046,54.982694 189.43348,55.00587 187.4433,53.958519 z M 215.54114,30.74885 C 215.40729,29.392533 214.98976,28.958294 212.64053,27.732175 C 210.32051,26.521302 209.41403,26.322714 206.77676,26.447567 C 203.84672,26.586279 203.00197,26.311985 204.15829,25.597339 C 204.43272,25.427735 204.65725,24.861059 204.65725,24.33806 C 204.65725,23.81506 205.0668,23.167966 205.56736,22.900073 C 206.06793,22.63218 206.73888,21.540527 207.05836,20.474177 C 207.91694,17.6085 211.06252,13.026619 214.51262,9.6162361 C 217.43779,6.7247414 224.8338,1.9490027 225.44306,2.5582568 C 225.60502,2.7202176 225.13462,3.5692646 224.39771,4.4450256 C 222.52101,6.6753698 220.22949,11.380482 219.37518,14.757704 C 218.7351,17.288046 218.48499,20.947747 218.63438,25.597339 C 218.7023,27.710889 218.10234,30.971839 217.50986,31.709539 C 216.61333,32.8258 215.70222,32.3812 215.54114,30.74885 z"
         id="path3400" />
    </g>
    <path
       style="font-size:27.23571014px;font-style:normal;font-variant:normal;font-weight:bold;font-stretch:normal;text-align:start;line-height:125%;writing-mode:lr-tb;text-anchor:start;fill:#000000;fill-opacity:1;stroke:none;stroke-width:1px;stroke-linecap:butt;stroke-linejoin:miter;stroke-opacity:1;font-family:OptimusPrincepsSemiBold;-inkscape-font-specification:OptimusPrincepsSemiBold Semi-Bold"
       d="M 27.712465,97.74568 C 27.512709,97.654895 27.312981,97.591345 27.113279,97.55503 C 26.931681,97.500559 26.759188,97.455166 26.5958,97.418851 C 26.30526,97.364381 26.023825,97.291752 25.751493,97.200966 C 25.497268,97.092024 25.261226,96.855981 25.043365,96.492837 C 24.934398,96.311268 24.825455,96.020754 24.716536,95.621294 C 24.625727,95.22184 24.534941,94.758834 24.444179,94.232273 C 24.35337,93.687563 24.271663,93.106536 24.199058,92.489188 C 24.126406,91.853694 24.053777,91.218195 23.981172,90.582688 C 23.90852,89.929039 23.84497,89.29354 23.790522,88.676188 C 23.736028,88.040699 23.690635,87.459671 23.654344,86.933103 C 23.618006,86.533657 23.581692,86.170515 23.545401,85.843674 C 23.527221,85.498701 23.509064,85.226345 23.49093,85.026603 C 23.363807,83.828246 23.227628,82.629876 23.082394,81.431489 C 22.955271,80.214979 22.819093,79.00753 22.673858,77.80914 C 22.655679,77.68206 22.573972,77.609432 22.428737,77.591254 C 22.301615,77.573118 22.192672,77.609432 22.101908,77.700197 C 21.611644,78.44466 21.175873,79.207259 20.794594,79.987997 C 20.413274,80.768771 20.041053,81.540449 19.67793,82.303032 L 19.133216,83.501403 C 18.751898,84.336646 18.370598,85.153716 17.989316,85.952617 C 17.607999,86.751543 17.235778,87.559535 16.872652,88.376595 C 16.436865,89.338933 16.001094,90.283103 15.565338,91.209109 C 15.129552,92.13513 14.675624,93.0793 14.203552,94.041623 C 14.00381,93.678485 13.776846,93.224557 13.52266,92.679838 C 13.268447,92.116972 12.914383,91.363452 12.460467,90.419274 C 12.079155,89.620368 11.67062,88.776062 11.23486,87.886353 C 10.799078,86.996664 10.363307,86.106965 9.9275459,85.217253 C 9.4917654,84.327567 9.065073,83.465104 8.6474675,82.629861 C 8.2298454,81.794649 7.8394673,81.041128 7.4763319,80.369297 C 7.1131824,79.697501 6.7863542,79.125552 6.4958464,78.653447 C 6.2053263,78.163224 5.9692837,77.836396 5.7877179,77.672961 C 5.6787698,77.582196 5.5698271,77.554961 5.4608894,77.591254 C 5.3519416,77.627589 5.2883917,77.700218 5.2702394,77.80914 C 5.2339203,78.081517 5.1794489,78.526367 5.1068252,79.14369 C 5.0523491,79.742894 4.9797206,80.451022 4.8889395,81.268075 C 4.7981494,82.194105 4.6892066,83.210904 4.562111,84.318475 C 4.4531641,85.407916 4.3351428,86.5155 4.2080467,87.641231 C 4.0991002,88.766983 3.9810789,89.874568 3.8539825,90.963988 C 3.7268792,92.035265 3.6088579,93.006671 3.4999183,93.878209 C 3.3909724,94.749755 3.2820297,95.47604 3.1730897,96.057066 C 3.0823014,96.619939 3.0096729,96.964924 2.9552041,97.092023 C 2.8462588,97.328066 2.7100804,97.473323 2.5466684,97.527794 C 2.4014093,97.564109 2.2289166,97.600423 2.0291899,97.636737 C 1.9384027,97.654895 1.7931457,97.68213 1.5934186,97.718444 C 1.4118461,97.754759 1.3210605,97.763837 1.3210615,97.74568 C 1.2302749,97.818309 1.1939607,97.909094 1.2121186,98.018037 C 1.248432,98.108823 1.3392176,98.163294 1.4844757,98.181451 C 2.4104878,98.235923 3.3365011,98.25408 4.2625181,98.235923 C 5.2066846,98.217765 6.1417764,98.208687 7.0677963,98.208687 C 7.2493608,98.208687 7.349225,98.154215 7.3673891,98.045273 C 7.4036964,97.918173 7.349225,97.827387 7.2039748,97.772915 C 6.9679254,97.663973 6.7591185,97.573188 6.5775535,97.500558 C 6.4141332,97.427931 6.2597977,97.364381 6.1145464,97.309908 L 6.1417821,97.309908 C 5.9602052,97.237281 5.8240268,97.173731 5.7332465,97.119258 C 5.6424555,97.064788 5.5698271,96.99216 5.5153608,96.901373 C 5.4790414,96.810588 5.4518058,96.683489 5.4336537,96.520073 C 5.4336486,96.35666 5.4336486,96.120618 5.4336537,95.811944 L 5.4336537,95.022109 C 5.4336486,93.769271 5.5062771,92.498272 5.6515394,91.209109 C 5.7967911,89.901804 5.9602052,88.621726 6.1417821,87.368874 C 6.2144049,86.878643 6.2779548,86.379322 6.3324321,85.87091 C 6.4050547,85.362523 6.459526,84.854124 6.4958464,84.34571 C 6.7137257,84.745181 6.895297,85.099245 7.0405606,85.407903 C 7.1858109,85.716587 7.3219893,86.016179 7.4490962,86.306681 C 7.576189,86.597207 7.7032889,86.905878 7.8303962,87.232696 C 7.9756457,87.541378 8.1481384,87.90452 8.3478747,88.322124 C 9.1104658,90.010746 9.8912221,91.672123 10.690146,93.306259 C 11.507206,94.940405 12.478612,96.520074 13.604367,98.045273 C 13.695139,98.117901 13.795003,98.154215 13.90396,98.154215 C 14.012889,98.154215 14.094596,98.108823 14.149081,98.018037 C 14.494052,97.309909 14.829959,96.61086 15.156802,95.920887 C 15.483616,95.212762 15.810444,94.513713 16.137288,93.823737 C 16.899871,92.207758 17.66247,90.600853 18.425087,89.003017 C 19.187669,87.405199 19.977503,85.816451 20.794594,84.236768 C 20.830888,84.636238 20.867202,84.990302 20.903537,85.29896 C 20.939831,85.607644 20.976145,85.916315 21.01248,86.224974 C 21.048774,86.5155 21.085088,86.815093 21.121423,87.123753 C 21.157716,87.432435 21.203109,87.786499 21.257601,88.185945 C 21.420995,89.493268 21.566251,90.87321 21.693373,92.325773 C 21.820451,93.760192 21.884001,95.131055 21.884023,96.438366 C 21.884001,96.67441 21.874923,96.910453 21.856787,97.146494 C 21.856765,97.364381 21.820451,97.591345 21.747844,97.827387 C 21.711508,97.918173 21.720587,97.99988 21.77508,98.072508 C 21.847687,98.12698 21.938472,98.154215 22.047437,98.154215 C 22.973428,98.208687 23.890363,98.226844 24.798244,98.208687 C 25.724232,98.19053 26.659324,98.181451 27.603522,98.181451 L 27.712465,97.74568 M 38.259067,93.987152 C 38.277214,93.932685 38.249978,93.887292 38.17736,93.850973 C 38.122878,93.796506 38.059328,93.769271 37.98671,93.769266 C 37.914071,93.751113 37.841443,93.760192 37.768825,93.796502 C 37.696186,93.814663 37.650793,93.850978 37.632646,93.905445 C 37.469222,94.540948 37.142394,95.003955 36.652161,95.294466 C 36.161909,95.566826 35.626274,95.703004 35.045254,95.703001 C 34.573161,95.703004 34.07384,95.612218 33.54729,95.430644 C 33.020727,95.249076 32.612192,94.958562 32.321683,94.559102 L 32.321683,89.275374 L 32.675747,89.275374 C 32.893627,89.275383 33.165984,89.275383 33.492818,89.275374 C 33.81964,89.275383 34.146468,89.284461 34.473304,89.30261 C 34.818282,89.320776 35.126953,89.35709 35.399318,89.411552 C 35.671667,89.447875 35.853238,89.502347 35.944032,89.574967 C 35.998495,89.61129 36.052966,89.702075 36.107446,89.847324 C 36.180066,89.992589 36.243616,90.146925 36.298096,90.310331 C 36.316245,90.401124 36.316245,90.473753 36.298096,90.528217 C 36.298087,90.564538 36.40703,90.646246 36.624925,90.773338 C 36.715701,90.845974 36.815565,90.864131 36.924518,90.827809 C 37.033451,90.791503 37.097001,90.727953 37.115168,90.637159 C 37.151472,90.382967 37.187786,90.146925 37.22411,89.929031 C 37.260415,89.711154 37.296729,89.493268 37.333053,89.275374 C 37.369358,89.03934 37.396593,88.757905 37.41476,88.431067 C 37.451065,88.104248 37.487379,87.822813 37.523703,87.58676 C 37.54185,87.495985 37.505536,87.423356 37.41476,87.368874 C 37.342122,87.296257 37.242258,87.278099 37.115168,87.314403 C 37.006215,87.350728 36.888194,87.432435 36.761103,87.559524 C 36.652151,87.686635 36.525051,87.786499 36.379803,87.859117 L 36.407039,87.859117 C 36.243616,87.913599 36.08928,87.977149 35.944032,88.049767 C 35.798767,88.104248 35.680745,88.131484 35.589968,88.131474 L 32.321683,88.131474 L 32.321683,82.929453 L 32.811925,82.929453 C 32.957177,82.929469 33.102434,82.929469 33.247697,82.929453 C 33.392948,82.911312 33.529126,82.902233 33.656232,82.902218 C 33.801483,82.902233 33.937662,82.902233 34.064768,82.902218 C 34.210018,82.884076 34.355275,82.874997 34.500539,82.874982 C 34.754732,82.874997 35.008932,82.893154 35.263139,82.929453 C 35.517331,82.965783 35.744295,83.038411 35.944032,83.147339 C 36.143752,83.23814 36.307166,83.374318 36.434275,83.555875 C 36.561366,83.737461 36.633994,83.982582 36.652161,84.291239 C 36.670308,84.43651 36.770173,84.509138 36.951753,84.509125 C 37.133315,84.509138 37.242258,84.445588 37.278582,84.318475 C 37.314886,84.209546 37.342122,84.100603 37.360289,83.991646 C 37.378436,83.882718 37.405672,83.764696 37.441996,83.637582 C 37.514615,83.347083 37.587243,83.056569 37.659882,82.766039 C 37.7325,82.475541 37.786971,82.157791 37.823296,81.812789 C 37.841443,81.72202 37.805129,81.649392 37.714353,81.594904 C 37.623557,81.540449 37.514615,81.53137 37.387525,81.567668 C 37.133315,81.65847 36.633994,81.72202 35.889561,81.758318 C 35.14511,81.794649 34.318961,81.812806 33.411111,81.812789 C 32.775606,81.812806 32.149185,81.812806 31.531847,81.812789 C 30.914501,81.794649 30.342551,81.776491 29.815997,81.758318 C 29.489167,81.758334 29.189574,81.758334 28.917219,81.758318 C 28.663018,81.740177 28.454211,81.731099 28.290798,81.731082 C 28.127383,81.731099 28.01844,81.78557 27.963969,81.894496 C 27.909497,82.003455 27.95489,82.094241 28.100148,82.166854 C 28.245404,82.257655 28.390661,82.321205 28.535919,82.357504 C 28.699332,82.393834 28.853667,82.430148 28.998926,82.466446 C 29.198653,82.502776 29.380224,82.575405 29.54364,82.684332 C 29.725209,82.775133 29.815995,82.974862 29.815997,83.283518 L 29.815997,94.450159 C 29.815995,94.940405 29.734288,95.339862 29.570876,95.64853 C 29.40746,95.939047 29.071553,96.093382 28.563155,96.111537 C 28.399739,96.111539 28.308954,96.193246 28.290798,96.356659 C 28.290797,96.501917 28.372504,96.583624 28.535919,96.60178 C 29.171417,96.638096 29.815995,96.656253 30.469654,96.656251 C 31.123308,96.638096 31.776964,96.629017 32.430625,96.629016 C 32.721134,96.629017 33.011648,96.629017 33.302168,96.629016 C 33.592676,96.61086 33.88319,96.601782 34.173711,96.60178 C 34.300804,96.601782 34.518689,96.61086 34.827368,96.629016 C 35.154189,96.629017 35.490095,96.638096 35.835089,96.656251 C 36.198223,96.656253 36.53413,96.656253 36.842811,96.656251 C 37.151472,96.656253 37.360279,96.638096 37.469232,96.60178 L 37.687118,96.492837 L 38.259067,93.987152 M 56.394645,96.60178 L 56.231231,96.138773 C 55.6865,96.211403 55.141786,96.120618 54.597088,95.866416 C 54.052359,95.594061 53.516724,95.239997 52.990182,94.804223 C 52.463611,94.368456 51.955212,93.878213 51.464982,93.333495 C 50.974727,92.788786 50.51172,92.253151 50.075961,91.726588 C 49.803593,91.399766 49.531236,91.091095 49.258889,90.800574 C 49.004679,90.49191 48.741401,90.201396 48.469054,89.929031 C 48.777715,89.656682 49.077308,89.35709 49.367832,89.030253 C 49.676493,88.685276 49.94885,88.322134 50.184903,87.940824 C 50.439092,87.559535 50.63882,87.160078 50.784089,86.742453 C 50.947491,86.324851 51.029198,85.907237 51.02921,85.48961 C 51.029198,84.654395 50.82947,83.99166 50.430025,83.501403 C 50.048714,83.011176 49.558471,82.638955 48.959296,82.384739 C 48.360101,82.130555 47.688288,81.967141 46.943854,81.894496 C 46.217561,81.821884 45.518512,81.78557 44.846704,81.785554 C 44.64697,81.78557 44.45632,81.794649 44.274754,81.812789 C 44.111335,81.812806 43.938842,81.812806 43.757276,81.812789 L 43.185326,81.812789 C 42.894808,81.812806 42.622451,81.812806 42.368255,81.812789 C 42.114051,81.812806 41.841695,81.803727 41.551183,81.785554 C 41.333295,81.767413 41.11541,81.758334 40.897526,81.758318 C 40.679639,81.758334 40.470832,81.758334 40.271105,81.758318 L 39.862569,81.758318 C 39.717311,81.758334 39.617447,81.794649 39.562976,81.867261 C 39.508504,81.939906 39.517583,82.021613 39.590212,82.112382 C 39.680997,82.257655 39.799018,82.348441 39.944276,82.384739 C 40.089532,82.421069 40.262025,82.448305 40.461755,82.466446 C 40.661482,82.484619 40.852131,82.539091 41.033705,82.629861 C 41.233431,82.720662 41.333295,82.98394 41.333298,83.419696 L 41.333298,94.477395 C 41.333295,94.822384 41.315138,95.103819 41.278826,95.321702 C 41.260667,95.521433 41.206195,95.675768 41.115412,95.784709 C 41.024624,95.893654 40.888446,95.975361 40.706876,96.02983 C 40.54346,96.066146 40.316496,96.102461 40.025984,96.138773 C 39.862568,96.175089 39.780861,96.265875 39.780862,96.41113 C 39.799018,96.538232 39.889804,96.61086 40.053219,96.629016 C 40.979231,96.683489 41.896166,96.719803 42.804026,96.737958 C 43.730035,96.73796 44.656048,96.73796 45.582068,96.737958 C 45.745476,96.73796 45.854419,96.683489 45.908897,96.574544 C 45.963361,96.465603 45.917968,96.374818 45.772718,96.302187 C 45.627455,96.193246 45.46404,96.129696 45.282476,96.111537 C 45.119055,96.075225 44.955641,96.047989 44.792233,96.02983 C 44.701441,96.011675 44.592499,96.002597 44.465404,96.002594 C 44.356456,96.002597 44.274749,95.984439 44.220283,95.948123 C 44.183963,95.929968 44.138571,95.85734 44.084104,95.730237 C 44.047785,95.584983 44.011471,95.430647 43.975162,95.26723 C 43.938842,95.085662 43.902528,94.922248 43.866219,94.776987 C 43.848057,94.613577 43.838978,94.495555 43.838983,94.422923 L 43.838983,90.827809 C 43.984235,90.80966 44.075021,90.80966 44.11134,90.827809 C 44.165806,90.827817 44.26567,90.827817 44.410933,90.827809 C 44.810384,90.827817 45.246155,90.864131 45.718247,90.936752 C 46.208482,90.991231 46.607939,91.154645 46.916618,91.426995 C 47.261595,91.717516 47.588424,92.044344 47.897104,92.407481 C 48.205766,92.770629 48.514437,93.151928 48.823118,93.55138 C 49.168093,93.987156 49.522157,94.413848 49.885311,94.831459 C 50.248442,95.249076 50.63882,95.621297 51.056446,95.948123 C 51.474048,96.274953 51.937054,96.538232 52.445467,96.737958 C 52.953853,96.937688 53.525803,97.037552 54.161317,97.037551 C 54.960215,97.037552 55.704657,96.892295 56.394645,96.60178 M 48.469054,86.497331 C 48.469044,87.423356 48.24208,88.15872 47.788161,88.703424 C 47.334224,89.248147 46.66241,89.520504 45.772718,89.520495 C 45.46404,89.520504 45.137212,89.511425 44.792233,89.49326 C 44.465399,89.475111 44.147649,89.447875 43.838983,89.411552 L 43.838983,82.847746 C 44.238435,82.738819 44.656048,82.684348 45.091826,82.684332 C 45.600219,82.684348 46.063225,82.79329 46.480847,83.011161 C 46.898453,83.210904 47.252517,83.483261 47.54304,83.828232 C 47.851702,84.173232 48.078666,84.581767 48.223932,85.053839 C 48.387337,85.50778 48.469044,85.988944 48.469054,86.497331 M 68.888601,93.823737 C 68.888589,93.696642 68.806882,93.624014 68.64348,93.605852 C 68.480054,93.569542 68.352954,93.605856 68.26218,93.714795 C 67.917183,94.350298 67.426941,94.840541 66.791451,95.185523 C 66.1741,95.530511 65.529522,95.703004 64.857716,95.703001 C 64.53088,95.703004 64.204052,95.657611 63.87723,95.566823 C 63.568553,95.47604 63.287117,95.339862 63.032923,95.158287 C 62.796875,94.976719 62.597147,94.749755 62.433738,94.477395 C 62.288476,94.205041 62.215847,93.887292 62.215852,93.524145 L 62.215852,83.365225 C 62.215847,83.038411 62.32479,82.79329 62.542681,82.629861 C 62.778718,82.448305 63.051075,82.375676 63.359752,82.411975 L 63.68658,82.411975 C 63.849988,82.411991 63.940774,82.348441 63.958938,82.221325 C 63.977088,82.076084 63.913538,81.985298 63.768288,81.948968 C 63.386982,81.840041 62.987525,81.776491 62.569916,81.758318 C 62.170454,81.740177 61.770998,81.731099 61.371545,81.731082 C 61.099184,81.731099 60.826827,81.740177 60.554474,81.758318 C 60.300271,81.758334 60.036993,81.758334 59.764638,81.758318 L 58.239438,81.758318 C 58.112338,81.758334 58.012473,81.794649 57.939846,81.867261 C 57.885374,81.939906 57.885374,82.021613 57.939846,82.112382 C 57.994316,82.221341 58.112338,82.303048 58.29391,82.357504 C 58.493637,82.393834 58.675208,82.421069 58.838624,82.439211 C 59.038351,82.457384 59.229001,82.520933 59.410574,82.629861 C 59.6103,82.720662 59.710164,82.974862 59.710167,83.392461 L 59.710167,94.450159 C 59.710164,94.922248 59.628457,95.312626 59.465045,95.621294 C 59.301629,95.929968 58.974801,96.093382 58.48456,96.111537 C 58.302987,96.111539 58.203123,96.193246 58.184967,96.356659 C 58.184966,96.501917 58.275752,96.583624 58.457324,96.60178 C 59.347022,96.656253 60.263957,96.683489 61.208131,96.683487 C 61.571269,96.683489 61.94349,96.683489 62.324795,96.683487 C 62.706089,96.665331 63.07831,96.656253 63.441459,96.656251 C 63.877224,96.638096 64.303916,96.629017 64.721537,96.629016 C 65.157301,96.629017 65.593072,96.629017 66.028851,96.629016 C 66.446457,96.629017 66.86407,96.638096 67.281694,96.656251 C 67.717455,96.656253 68.144147,96.67441 68.561773,96.710723 L 68.64348,96.22048 C 68.588997,96.202325 68.552683,96.202325 68.534537,96.22048 C 68.516368,96.220482 68.480054,96.211403 68.425594,96.193244 C 68.607154,95.866418 68.716097,95.530511 68.752422,95.185523 C 68.788725,94.822384 68.82504,94.459241 68.861365,94.096095 C 68.861354,94.041627 68.861354,93.996235 68.861365,93.959916 C 68.879511,93.905449 68.888589,93.860056 68.888601,93.823737 M 76.031593,96.302187 C 75.88633,96.175089 75.731994,96.102461 75.568586,96.084301 C 75.423323,96.047989 75.250831,96.029832 75.051108,96.02983 C 74.960317,96.029832 74.860452,96.020754 74.751515,96.002594 C 74.642567,95.984439 74.56086,95.966282 74.506394,95.948123 C 74.470074,95.893654 74.424681,95.79379 74.370215,95.64853 C 74.315739,95.503276 74.270346,95.34894 74.234036,95.185523 C 74.197717,95.022112 74.161403,94.867776 74.125094,94.722516 C 74.106932,94.577262 74.097853,94.46832 74.097858,94.395687 L 74.097858,83.392461 C 74.097853,82.956704 74.224953,82.684348 74.479158,82.575389 C 74.733353,82.466462 75.042024,82.384755 75.405172,82.330268 C 75.56858,82.293969 75.641209,82.212262 75.623058,82.085146 C 75.623052,81.958063 75.541344,81.885434 75.377936,81.867261 C 74.960317,81.830963 74.551781,81.830963 74.152329,81.867261 C 73.752868,81.903591 73.344333,81.921748 72.926722,81.921732 C 72.509105,81.921748 72.082413,81.903591 71.646644,81.867261 C 71.210871,81.830963 70.7751,81.830963 70.33933,81.867261 C 70.157758,81.885434 70.057894,81.967141 70.039737,82.112382 C 70.039737,82.239498 70.130522,82.312127 70.312094,82.330268 C 70.638922,82.366598 70.947593,82.466462 71.238108,82.629861 C 71.546778,82.775133 71.701113,83.029333 71.701115,83.392461 L 71.701115,94.477395 C 71.701113,94.622655 71.682956,94.786069 71.646644,94.967637 C 71.628485,95.149212 71.59217,95.330783 71.537701,95.512352 C 71.483228,95.693925 71.401521,95.848261 71.29258,95.975359 C 71.201792,96.084304 71.083771,96.138775 70.938516,96.138773 C 70.9022,96.138775 70.847728,96.156932 70.775101,96.193244 C 70.720629,96.211403 70.648,96.202325 70.557216,96.166009 C 70.3938,96.129696 70.275779,96.202325 70.203151,96.383894 C 70.130522,96.54731 70.175915,96.656253 70.33933,96.710723 C 70.466429,96.765196 70.638922,96.80151 70.856808,96.819666 C 71.09285,96.819667 71.328892,96.810588 71.564937,96.79243 C 71.819135,96.774274 72.055177,96.756117 72.273065,96.737958 C 72.490948,96.719803 72.672519,96.710724 72.81778,96.710723 L 73.852737,96.737958 C 74.197717,96.756117 74.524546,96.756117 74.833222,96.737958 C 75.160045,96.719803 75.486873,96.719803 75.813708,96.737958 L 76.031593,96.302187 M 98.815115,78.844097 L 98.760643,78.38109 C 98.106965,78.344795 97.453309,78.335717 96.799672,78.353854 C 96.145996,78.353874 95.501418,78.353874 94.865937,78.353854 L 92.904966,78.353854 C 92.759693,78.353874 92.659828,78.399267 92.605373,78.490033 C 92.569043,78.580838 92.605357,78.662545 92.714316,78.735154 C 92.805085,78.844116 92.923107,78.916745 93.06838,78.95304 C 93.231778,78.989373 93.413349,79.025688 93.613094,79.061983 C 93.776491,79.098316 93.939905,79.13463 94.103337,79.170925 C 94.266734,79.207259 94.411991,79.288966 94.539108,79.416047 C 94.684347,79.525008 94.802369,79.697501 94.893172,79.933525 C 94.98394,80.169586 95.029333,80.496414 95.029351,80.914011 C 95.029333,82.911312 95.056568,84.899516 95.111058,86.878631 C 95.183668,88.857769 95.219983,90.845974 95.220001,92.843252 C 95.219983,92.988514 95.210904,93.133771 95.192765,93.279023 C 95.192747,93.406128 95.192747,93.542306 95.192765,93.687559 C 90.399267,88.403841 85.487765,83.192747 80.458246,78.054261 C 80.312985,77.945339 80.167728,77.945339 80.022475,78.054261 C 79.913529,78.163224 79.822743,78.272167 79.750118,78.38109 C 79.677486,78.471895 79.641172,78.589917 79.641175,78.735154 L 79.641175,95.893651 C 79.641172,96.347582 79.504994,96.719803 79.232639,97.010316 C 78.978437,97.282674 78.64253,97.464245 78.224918,97.55503 L 77.843618,97.636737 C 77.680203,97.673052 77.580339,97.754759 77.544025,97.881858 C 77.525867,98.008958 77.598496,98.090666 77.761911,98.12698 C 78.197681,98.217765 78.660687,98.235923 79.150932,98.181451 C 79.641172,98.108823 80.122336,98.081587 80.594425,98.099744 L 84.05336,98.181451 C 84.19861,98.181451 84.298474,98.136058 84.352953,98.045273 C 84.407416,97.93633 84.371102,97.845544 84.24401,97.772915 C 84.044274,97.645816 83.844546,97.55503 83.644824,97.500558 C 83.463246,97.427931 83.281675,97.373459 83.10011,97.337144 C 82.93669,97.300831 82.773275,97.255438 82.609867,97.200966 C 82.446447,97.128338 82.30119,97.019395 82.174096,96.874137 C 82.065148,96.728881 81.974362,96.529153 81.901739,96.274951 C 81.829105,96.020754 81.792791,95.675768 81.792796,95.239994 C 81.792791,94.332141 81.774634,93.433364 81.738324,92.543659 C 81.702005,91.635809 81.665691,90.718874 81.629382,89.792852 C 81.593063,88.903162 81.556748,88.013463 81.520439,87.123753 C 81.48412,86.234065 81.465963,85.335287 81.465967,84.427417 C 81.465963,83.955346 81.493198,83.456025 81.547674,82.929453 C 81.874498,83.292611 82.146855,83.592204 82.364746,83.828232 C 82.582626,84.064289 82.845904,84.363881 83.154581,84.72701 C 84.189531,85.870922 85.242644,87.042057 86.313924,88.240417 C 87.385184,89.42064 88.465533,90.600853 89.554973,91.781059 C 90.662545,92.943121 91.779208,94.077942 92.904966,95.185523 C 94.048848,96.29311 95.201825,97.337145 96.363901,98.31763 C 96.472824,98.390258 96.581767,98.408415 96.690729,98.372101 C 96.817809,98.335787 96.890438,98.263158 96.908615,98.154215 C 97.144637,95.140133 97.244502,92.116972 97.208208,89.084724 C 97.19003,86.052494 97.180952,83.020254 97.180972,79.987997 C 97.180952,79.679344 97.31713,79.470537 97.589508,79.361575 C 97.880001,79.252652 98.170515,79.152787 98.46105,79.061983 C 98.5155,79.043845 98.569972,79.00753 98.624465,78.95304 C 98.697071,78.898588 98.760621,78.862273 98.815115,78.844097"
       id="text2566" />
  </g>
</svg>
